<svg width="35" height="25" viewBox="0 0 35 25" fill="none" xmlns="http://www.w3.org/2000/svg">
<path d="M1.62323 23.2302C2.45076 24.757 3.1529 24.8359 3.62935 24.9939C3.77981 25.0728 4.8581 24.3621 4.90825 24.3358C4.98348 24.2831 5.08379 23.862 6.96452 22.4932C8.87033 21.098 11.3529 19.2817 13.8355 17.3338L14.3119 16.9389C14.6128 16.702 14.9138 16.4651 15.1896 16.2019C15.7664 15.728 16.3431 15.2279 16.8196 14.7014C17.3211 14.175 17.6972 13.6485 17.8979 13.0957C17.948 12.9641 17.9982 12.8325 18.0232 12.7009C18.0483 12.5692 18.0483 12.4376 18.0734 12.306C18.0734 12.1744 18.0985 12.0164 18.1235 11.8848V11.7795C18.0985 11.7795 18.1486 11.7795 18.1486 11.7532V11.7269V11.7006V11.6479C18.1486 11.569 18.1486 11.5163 18.1235 11.4373C18.0734 11.1741 18.0232 10.9109 17.9731 10.674C17.9229 10.4107 17.7976 10.1738 17.6471 9.91058C17.3713 9.41043 16.945 8.93661 16.4936 8.48911C16.0171 8.04162 15.5407 7.62044 15.0893 7.22559C14.8385 7.04133 14.6128 6.83074 14.3872 6.64648C14.2618 6.54118 14.1364 6.43589 14.011 6.3306C13.1083 5.59354 12.356 4.9881 11.8043 4.56693C11.2777 4.14576 10.9768 3.90885 10.9768 3.90885C10.9768 3.90885 9.34678 2.98753 7.74189 2.11886C6.137 1.27651 4.5321 0.486805 4.60733 0.618422C3.20305 0.0656319 1.92415 -0.197603 1.37247 0.170925C0.820787 0.565775 1.0214 1.56606 2.55106 3.54032C3.37859 4.77752 4.50703 6.14633 5.40978 7.19927C6.31253 8.2522 6.9896 8.98926 6.9896 8.98926C6.9896 8.98926 7.29051 9.19985 7.81712 9.62102C8.24342 9.96322 8.82018 10.4107 9.47217 10.9372C9.57247 11.1215 9.62262 11.332 9.62262 11.5953C9.62262 11.9901 9.32171 12.3587 9.1211 12.7009C9.07094 12.7798 9.02079 12.8588 8.97064 12.9114C7.0899 14.2803 5.33455 15.3332 3.77981 16.4651C2.12476 17.5707 1.32232 18.1498 1.27216 18.2024C1.24709 18.2551 0.193876 18.6763 0.0183411 19.5713C-0.157194 20.4663 0.971247 22.4142 1.62323 23.2302Z" fill="#A6192E"/>
<path d="M18.4746 23.2302C19.3021 24.757 20.0043 24.8359 20.4807 24.9939C20.6312 25.0728 21.7095 24.3621 21.7596 24.3358C21.8349 24.2831 21.9352 23.862 23.8159 22.4932C25.7217 21.098 28.2043 19.2817 30.6868 17.3338L31.1633 16.9389C31.4642 16.702 31.7651 16.4651 32.041 16.2019C32.6177 15.728 33.1945 15.2279 33.6709 14.7014C34.1725 14.175 34.5486 13.6485 34.7492 13.0957C34.7994 12.9641 34.8495 12.8325 34.8746 12.7009C34.8997 12.5692 34.8997 12.4376 34.9248 12.306C34.9248 12.1744 34.9498 12.0164 34.9749 11.8848V11.7795C34.9498 11.7795 35 11.7795 35 11.7532V11.7269V11.7006V11.6479C35 11.569 35 11.5163 34.9749 11.4373C34.9248 11.1741 34.8746 10.9109 34.8245 10.674C34.7743 10.4107 34.6489 10.1738 34.4985 9.91058C34.2226 9.41043 33.7963 8.93661 33.345 8.48911C32.8685 8.04162 32.392 7.62044 31.9407 7.22559C31.6899 7.04133 31.4642 6.83074 31.2385 6.64648C31.1131 6.54118 30.9878 6.43589 30.8624 6.3306C29.9596 5.59354 29.2073 4.9881 28.6557 4.56693C28.1291 4.14576 27.8281 3.90885 27.8281 3.90885C27.8281 3.90885 26.1982 2.98753 24.5933 2.11886C22.9884 1.27651 21.3835 0.486805 21.4587 0.618422C20.0544 0.0656319 18.7755 -0.197603 18.2238 0.170925C17.6722 0.565775 17.8728 1.56606 19.4024 3.54032C20.23 4.77752 21.3584 6.14633 22.2612 7.19927C23.1639 8.2522 23.841 8.98926 23.841 8.98926C23.841 8.98926 24.1419 9.19985 24.6685 9.62102C25.0948 9.96322 25.6716 10.4107 26.3235 10.9372C26.4239 11.1215 26.474 11.332 26.474 11.5953C26.474 11.9901 26.1731 12.3587 25.9725 12.7009C25.9223 12.7798 25.8722 12.8588 25.822 12.9114C23.9413 14.2803 22.1859 15.3332 20.6312 16.4651C18.9761 17.5707 18.1737 18.1498 18.1235 18.2024C18.0985 18.2551 17.0453 18.6763 16.8697 19.5713C16.6942 20.4663 17.8226 22.4142 18.4746 23.2302Z" fill="#A6192E"/>
</svg>
