<svg width="690" height="86" viewBox="0 0 690 86" fill="none" xmlns="http://www.w3.org/2000/svg">
<path d="M609.07 84.2638H603.187L595.608 84.8184L589.725 83.7091L582.199 84.8184L575.468 84.2638L569.585 84.8184L562.007 84.2638L556.123 85.3731L549.393 83.6744H542.662L535.931 85.3731H522.469L514.943 84.2638L508.212 83.7091L502.329 85.4077L494.75 83.7091L488.019 84.2638L482.136 85.3731L475.405 83.6744H467.826L461.095 84.2291L454.365 85.3384L447.634 84.2291H428.342L422.459 83.6744H415.728L408.202 85.3731L401.471 83.6744L395.588 84.2291L388.857 85.3384L381.331 84.2291H374.6L367.869 85.3384H354.46L348.578 84.2291L340.999 84.7838L335.116 84.2291H327.59L320.859 84.7838L314.128 84.2291L307.397 85.3384L300.666 84.2291L294.783 84.7838H288.052L280.526 85.3384H274.643L267.912 84.7838L261.182 83.6744L254.45 84.2291H248.568L241.837 83.6744L235.106 84.7838L228.375 83.6744L221.644 85.3731L214.065 84.2638H208.182L200.656 83.7091L193.925 85.4077L188.042 84.8531L174.633 83.7438L167.107 84.2984L160.376 85.4077L146.968 84.2984L140.237 85.4077H134.354L127.623 84.8531L120.097 83.7438L113.366 84.8531H94.074L86.5482 83.7438L80.6654 84.8531L74.7822 83.7438L67.2033 84.8531L61.3204 83.7438L54.5894 84.2984L47.0635 83.7438L41.1807 84.8531L33.6018 84.2984H14.3099L7.57888 83.7438L0.848173 80.9359L0 76.4293L0.848173 71.9228L0 66.307V62.3898L0.848173 58.4379V50.5688L0 45.5076V39.8918L0.848173 35.9746V32.612L0 26.9962V5.6422L7.57888 2.27963L14.3099 1.72497L20.1928 2.27963L26.9238 0.581055L34.5027 1.13566L41.2337 0.581055H47.9645L53.8476 1.13566L61.3735 2.27963H73.9874L80.7184 1.13566L87.4491 1.69033L93.332 1.13566L100.063 2.27963H107.589L114.32 0.581055L120.203 1.69033L126.934 1.13566H134.46L140.343 0.581055L147.869 1.69033L154.599 1.13566L161.33 1.69033H167.213L174.739 1.13566L181.47 2.27963L188.201 1.72497L194.084 2.27963H201.61L208.341 1.13566L215.072 2.27963H220.955L228.481 0.581055L234.364 1.69033L241.095 0.581055L248.673 1.69033L254.557 1.13566H261.287L267.17 2.27963L274.749 1.72497L288.158 0.615701H294.889L301.62 1.72497H307.503L315.082 0.615701L320.965 1.17036L327.696 0.615701L334.427 1.72497L342.006 0.615701H347.889L355.467 1.17036H361.35L368.081 1.72497H374.812L381.543 1.17036L388.274 2.31433L395.8 1.17036L401.683 2.31433L408.414 0.615701L415.94 1.72497L422.671 0.615701L429.402 1.72497H435.285L441.167 0.615701H448.694L454.577 2.31433L462.155 1.75967L468.886 0.650348L474.769 1.20501L481.5 2.34898L488.231 1.20501L495.81 2.34898H501.693L508.424 0.650348L515.95 1.20501H522.681L528.564 0.650348L535.295 2.34898H548.704L556.282 1.79432L562.165 2.34898L568.896 1.79432L575.627 0.685047L583.206 2.38363L589.089 1.82897L595.82 2.38363L603.399 1.82897L608.434 0.719694H616.013L622.744 1.82897L628.627 1.27436L636.206 2.41833L642.089 0.719694L648.819 1.82897L656.399 1.27436H676.538L682.421 0.719694L689.152 6.3355L690 11.3967V14.2046L689.152 18.7111V36.7026L690 41.7637V59.2005L689.152 62.5631L690 66.4803V79.9652L682.421 85.5811L676.538 83.8825H668.959L662.228 84.9917L655.497 84.4371L649.614 83.8825L642.089 84.9917L636.206 83.8825H629.475L622.744 84.9917L615.165 85.5464L609.07 84.2638ZM85.2763 43.2544C85.2763 43.2544 86.1241 42.6997 86.1241 42.1104C85.2761 41.5558 84.4282 41.5558 83.5803 41.5558L81.8842 42.6651C83.5802 43.2544 84.4283 43.2544 85.2763 43.2544ZM91.9543 29.2148V28.0708C90.2583 27.5162 87.7671 26.9616 86.0711 28.6255C86.0711 29.1802 86.9193 30.3241 86.9193 30.3241C89.4632 31.4681 91.1063 30.3241 91.9543 29.2148ZM107.059 24.1536C109.603 23.0097 107.907 21.9003 106.211 20.791C103.72 21.3457 102.872 22.4897 103.72 24.1536C104.568 24.7083 106.264 24.7083 107.059 24.1536ZM116.334 42.6997C112.995 41.5904 110.451 41.5904 108.755 43.809C112.094 44.953 113.79 44.3637 116.334 42.6997ZM116.334 51.6781L118.878 50.5688C118.03 50.0142 118.03 49.4595 117.182 49.4595C116.334 49.4595 115.486 50.0142 115.486 50.5688C114.638 50.5688 115.486 51.1235 116.334 51.6781ZM123.012 37.0839C125.503 34.8307 128.047 32.5774 130.538 29.7695L125.503 27.5162C124.655 27.5162 122.164 28.6255 122.164 29.2148C121.316 31.4681 121.316 33.7213 121.316 35.9746C121.369 36.4946 122.164 36.4946 123.012 37.0839ZM134.778 23.599C132.287 23.0444 129.743 23.0443 126.404 23.0443C133.082 26.9616 133.082 26.9616 134.778 23.599ZM149.883 59.5472C146.544 57.2939 141.509 56.1846 136.474 56.1846C136.474 55.0753 135.626 54.486 135.626 53.9314C135.626 52.7874 135.626 51.6781 134.778 51.1234C133.93 50.0141 132.287 49.4595 130.591 49.4595C130.591 49.4595 128.895 50.5688 128.895 51.7128V56.774L144.848 61.8352C147.392 62.9098 149.035 62.3551 149.883 59.5472ZM138.117 52.8221C142.304 52.8221 142.303 52.2674 143.999 51.1234C146.543 50.0141 147.339 48.3156 146.544 46.617C145.696 45.473 145.695 44.3637 143.999 43.809C142.303 42.6997 139.813 42.6997 138.117 44.9183C141.509 47.1716 140.661 50.0142 138.117 52.8221ZM140.661 24.7083C140.661 25.2629 141.508 25.263 142.356 25.8176L143.205 25.2629C143.205 24.7083 143.204 24.1536 142.356 24.1536C142.356 24.1536 140.661 24.1536 140.661 24.7083ZM148.24 38.1932C150.731 36.4946 151.578 35.3853 149.088 33.6867C146.544 35.3853 145.696 36.4946 148.24 38.1932ZM152.427 44.953C151.579 45.5076 149.936 46.6516 149.936 47.2063C149.088 47.7609 149.936 49.4595 150.784 49.4595L163.397 53.966C164.245 53.966 164.245 53.4114 165.093 53.4114L162.549 50.6035C160.853 48.3502 156.667 48.3502 155.819 45.5423C154.918 44.953 153.275 44.953 152.427 44.953ZM154.069 26.9615C155.765 26.9615 157.408 26.4069 158.256 26.4069V25.2629C159.104 25.2629 159.104 24.7083 159.952 24.7083C159.104 24.1536 159.104 23.599 158.256 23.599C158.256 24.1537 157.408 24.1536 157.408 24.7083C155.765 24.1536 154.917 24.7083 154.069 26.9615ZM157.462 24.7083H158.309V25.2629L157.462 24.7083ZM169.174 41.0011H168.326C169.174 41.5557 169.174 42.1104 170.022 42.1104L170.87 41.5558L170.022 41.0011H169.174L166.683 37.0492C166.683 36.4946 164.988 35.9399 164.14 36.4946C163.292 36.4946 162.443 37.0492 162.443 37.6385C162.496 39.8918 164.139 41.0011 169.174 41.0011ZM167.531 30.3241C166.683 30.8787 165.835 31.4334 165.04 32.5774C165.04 33.132 165.888 33.6867 166.736 34.8306C167.584 33.7213 168.432 33.7214 169.227 33.132C170.075 32.5774 170.923 31.4334 169.227 30.3241C168.379 30.3241 167.531 29.7694 167.531 30.3241ZM167.531 60.1019C170.87 61.8005 174.262 61.2111 176.753 58.9925C175.905 56.7393 175.905 54.486 175.057 51.1234C170.87 54.486 166.683 56.7393 167.531 60.1019ZM175.057 37.6385C175.057 37.0839 174.209 36.4946 173.361 35.9399L171.665 37.0492C172.513 37.6039 173.361 38.1585 173.361 38.7479L175.057 37.6385ZM172.566 43.809C171.718 46.0623 171.718 47.7609 174.262 48.8702C176.806 48.3156 178.449 47.1716 178.449 45.5076C177.601 43.809 175.905 43.2544 172.566 43.809ZM183.484 65.7177C185.975 65.7177 187.671 64.0191 187.671 62.9098C187.671 62.3551 186.823 61.8005 185.975 61.8005C183.484 61.2458 180.94 62.3551 180.94 64.0537L183.484 65.7177ZM187.671 58.9925C188.519 58.9925 188.519 57.8833 187.671 57.8833C186.823 57.3286 185.975 57.3286 184.332 57.3286C183.484 57.3286 183.484 57.8832 181.788 59.0272C183.484 59.5818 184.332 59.5819 185.127 59.5819C185.975 59.5472 187.671 59.5472 187.671 58.9925ZM189.367 32.0227C189.367 32.5774 190.215 33.132 191.063 34.276L193.607 32.5774C192.759 32.0227 191.911 31.4681 191.063 31.4681C191.01 30.8787 189.367 32.0227 189.367 32.0227ZM206.963 42.6997C209.454 40.4465 208.659 38.1932 206.963 35.3853C202.776 37.0839 199.384 32.0227 194.349 34.8306C198.589 37.6385 200.285 42.1451 206.963 42.6997ZM200.285 26.9615L198.589 25.8522C197.741 25.8522 196.893 26.4069 196.098 27.5509C196.946 27.5509 197.794 28.1055 197.794 28.1055C198.589 28.0708 199.437 27.5162 200.285 26.9615ZM198.589 39.8918C197.741 40.4465 196.045 41.0358 196.045 41.5904C196.045 42.6997 197.741 43.289 198.536 44.953L201.875 42.6997C201.928 41.5558 200.285 39.8918 198.589 39.8918ZM205.32 19.6471C203.624 20.2018 202.776 20.7911 201.981 21.3457C201.133 22.455 202.829 23.599 205.32 24.1536C206.168 23.599 207.864 23.0097 207.864 21.9004C208.659 20.7911 206.963 19.6471 205.32 19.6471ZM209.507 55.0753C208.659 56.1846 207.811 56.774 207.811 57.3286C207.811 57.8833 208.659 58.4379 209.507 59.0272C210.355 57.9179 211.203 57.3286 212.051 56.774L209.507 55.0753ZM222.916 49.4249C222.068 48.8702 221.22 47.7262 220.372 48.2809C219.524 48.2809 218.676 48.8355 217.828 49.4249C217.828 49.9795 218.676 50.5341 218.676 51.0888L222.916 49.4249ZM226.255 33.132C223.711 34.2413 220.372 34.8306 218.676 37.0492C221.22 38.7478 223.711 39.3025 227.103 38.1585C227.103 36.4599 227.951 35.3506 227.951 33.652C227.951 33.132 227.103 33.132 226.255 33.132ZM235.53 34.276C235.53 34.276 235.53 33.7214 234.682 33.7214C234.682 33.7214 233.834 33.7213 232.986 34.276C232.986 34.276 233.834 34.8306 233.834 35.9746C234.682 35.3853 235.53 34.8306 235.53 34.276ZM242.208 33.6867C239.664 34.796 239.664 35.9399 241.36 38.1932C244.752 35.3853 244.752 35.3853 242.208 33.6867ZM243.904 29.7695C247.243 24.7083 246.394 24.1536 244.751 24.7083C243.903 24.7083 242.208 25.8176 242.208 26.4069C242.208 27.5162 243.904 28.0709 243.904 29.7695ZM266.587 41.0011C265.739 41.5557 264.892 42.1104 264.892 42.6997C264.892 43.2544 265.739 43.809 266.587 44.3984C267.435 43.8437 269.131 43.289 269.131 42.6997L266.587 41.0011ZM272.47 56.7393L269.131 56.1846C268.283 56.1846 268.283 56.7393 268.283 57.2939L269.131 57.8486C269.926 57.8832 270.774 57.294 272.47 56.7393ZM276.657 29.7695V30.8787C277.505 30.3241 278.353 30.3241 278.353 30.3241V29.2148C277.505 29.2148 276.657 29.2148 276.657 29.7695ZM278.3 39.8918C279.148 39.3372 279.148 39.3372 279.996 39.3372C279.148 38.7825 279.148 38.7825 279.148 38.2278C279.148 38.2278 277.452 38.2279 277.452 38.7825C277.505 38.7478 278.3 39.3372 278.3 39.8918ZM305.171 52.8221C306.019 52.2674 306.867 51.7128 310.206 50.5688C304.323 50.0142 301.832 47.2062 297.592 48.3155C296.744 51.1235 300.136 51.6781 300.931 53.9314L305.171 52.8221ZM318.633 26.9615C316.089 26.9615 315.294 28.0709 314.446 29.2148C314.446 29.7695 316.142 30.9135 316.937 30.9135C319.481 30.9135 320.276 30.3588 321.124 28.6602C320.276 28.0708 319.481 26.9615 318.633 26.9615ZM321.124 39.8918C321.972 39.3372 322.82 38.7825 322.82 38.1932C322.82 37.6385 321.972 37.0839 321.124 36.4946C321.124 37.0492 319.428 37.0492 319.428 37.0492C319.481 38.1932 320.276 38.7479 321.124 39.8918ZM331.194 40.4465L333.738 42.1451C334.586 41.5904 335.434 41.0358 335.434 40.4465C336.282 39.3372 334.586 38.7479 333.738 38.7479C332.89 39.3372 331.194 39.8918 331.194 40.4465ZM335.381 53.3767C335.381 53.3767 335.381 54.486 334.533 54.486C335.381 55.0407 336.229 55.0407 337.077 55.0407C337.925 55.0407 337.924 54.486 338.772 53.8967C337.077 53.9314 336.229 53.3767 335.381 53.3767ZM340.469 39.8918C339.621 39.3372 339.62 38.7825 338.772 38.7825C337.924 38.7825 337.077 39.3372 337.077 39.8918C337.077 39.8918 337.925 40.4465 337.925 41.0358L340.469 39.8918ZM342.96 27.5162L343.807 28.0708C344.655 28.0708 345.504 27.5162 346.352 27.5162L343.807 26.4069C343.807 26.9616 343.808 26.9615 342.96 27.5162ZM360.609 23.599L358.913 22.4897L356.421 24.1883C356.421 24.743 358.118 25.2976 358.913 26.4416C359.761 25.2629 360.609 24.7083 360.609 23.599ZM358.064 42.1451C363.099 43.8437 363.947 42.6997 363.947 37.6385C360.608 38.7478 358.912 40.4465 358.064 42.1451ZM358.913 44.3637C359.761 44.9183 360.609 44.9183 360.609 44.9183L361.456 44.3637C360.608 43.809 360.608 43.809 359.76 43.809C359.76 43.809 359.761 44.3637 358.913 44.3637ZM366.491 29.2148H365.643C364.795 29.2148 363.947 29.2148 363.099 29.7695C364.795 30.3241 365.643 30.8787 365.643 30.3241C366.491 30.3241 366.491 29.7695 366.491 29.2148ZM368.134 51.6781C371.473 51.1235 374.017 50.5688 376.508 48.3155C372.321 46.6169 368.929 44.953 363.046 46.0623L368.134 51.6781ZM365.643 54.486H367.339C367.339 54.486 368.187 54.486 368.187 53.9314C367.339 53.9314 367.339 53.9314 366.491 53.3767C366.491 53.9314 365.643 53.9314 365.643 54.486ZM369.83 40.4465C370.678 40.4465 371.526 39.8918 371.526 39.8918C371.526 39.3372 370.678 39.3372 369.83 38.7825L368.982 39.3372C368.982 39.8918 369.83 39.8918 369.83 40.4465ZM379.052 59.5472C379.052 58.9926 378.204 58.9925 377.356 58.9925C377.356 58.4379 376.508 59.5472 376.508 59.5472C377.356 59.5472 378.204 60.1019 378.204 60.1019C379.052 60.1019 379.052 59.5472 379.052 59.5472ZM386.631 29.7695C386.631 28.0709 388.327 27.5162 388.327 26.4069C388.327 25.8523 386.631 24.7083 385.783 24.7083C384.087 24.1536 383.239 24.7083 381.596 27.5162L386.631 29.7695ZM389.122 38.1932C390.818 35.9399 390.818 34.8306 388.274 33.6867C385.783 35.3853 385.783 35.3853 389.122 38.1932ZM395.005 34.276C395.005 34.8306 395.853 35.4199 396.701 35.9746C396.701 34.8653 397.549 34.276 397.549 34.276C396.701 33.7213 395.853 33.7214 395.853 33.7214C395.005 33.6867 395.005 34.276 395.005 34.276ZM411.806 37.0839C410.11 34.8307 406.771 34.276 404.28 33.1667C403.432 33.1667 402.584 33.1667 402.584 33.7214C402.584 35.42 403.432 36.5292 403.432 38.2278C406.771 39.3371 409.262 38.7479 411.806 37.0839ZM411.806 51.1234C411.806 50.5688 412.654 50.0142 412.654 49.4595C411.806 48.9049 410.958 48.3155 410.11 48.3155C409.262 47.7609 408.414 48.8702 407.619 49.4595L411.806 51.1234ZM422.724 57.2939C422.724 56.7393 421.876 56.1846 421.028 55.0407L418.537 56.7393C419.385 57.294 420.233 57.8486 421.028 58.9925C421.876 58.4379 422.724 57.8832 422.724 57.2939ZM436.133 34.8306C431.098 32.0227 427.759 37.0839 423.519 35.3853C421.823 38.1932 421.028 40.4465 423.519 42.6997C430.25 42.1451 431.946 37.6385 436.133 34.8306ZM425.215 19.6471C423.519 19.6471 421.876 20.7911 422.671 21.9004C422.671 23.0097 424.367 23.599 425.215 24.1536C427.706 23.599 429.402 22.455 428.554 21.3457C427.759 20.7911 426.911 20.2018 425.215 19.6471ZM434.49 41.5558C434.49 41.0011 432.794 40.4464 431.946 39.8571C430.25 39.8571 428.607 41.5558 428.607 42.6651L431.946 44.9183C432.794 43.2544 434.49 42.6997 434.49 41.5558ZM434.49 27.5162C433.642 26.4069 432.794 25.8176 431.946 25.8176L430.25 26.9269C431.098 27.4815 431.946 28.0362 432.741 28.0362C432.794 28.0709 433.642 27.5162 434.49 27.5162ZM439.471 31.4681C438.623 31.4681 437.776 32.0227 436.981 32.5774L439.471 34.276C440.319 33.1667 441.167 32.5774 441.167 32.0227C441.167 32.0227 439.471 30.8787 439.471 31.4681ZM445.355 59.5472C446.203 59.5472 447.051 59.5472 448.694 58.9925C446.998 57.8833 446.997 57.2939 446.149 57.2939C444.453 57.2939 443.658 57.2939 442.81 57.8486C441.962 57.8486 441.962 58.9579 442.81 58.9579C442.863 59.5472 444.56 59.5472 445.355 59.5472ZM447.051 65.7177L449.595 64.0191C449.595 62.3551 447.051 61.2112 444.56 61.7658C443.712 61.7658 442.863 62.3204 442.863 62.8751C442.863 64.0537 444.56 65.7177 447.051 65.7177ZM456.273 48.8702C458.816 47.7609 458.817 46.0623 457.969 43.809C454.63 43.2544 452.933 43.809 452.085 45.5076C452.085 47.1716 453.782 48.3156 456.273 48.8702ZM463.003 60.1019C463.851 56.7393 459.664 54.486 455.477 51.1234C454.629 54.486 454.629 56.7393 453.781 58.9925C456.272 61.2458 459.664 61.8005 463.003 60.1019ZM455.477 37.6385L457.173 38.7479C457.173 38.1932 458.021 37.6385 458.869 37.0492L457.173 35.9399C456.272 36.4946 455.477 37.0839 455.477 37.6385ZM468.038 37.6385C468.038 37.0839 467.19 36.4946 466.342 36.4946C465.494 35.9399 463.851 36.4946 463.851 37.0492L461.36 41.0011H460.512L459.665 41.5558L460.512 42.1104C461.36 42.1104 461.36 41.5557 462.208 41.0011H461.36C466.342 41.0011 468.038 39.8918 468.038 37.6385ZM463.851 34.8306C464.699 33.7213 465.547 33.132 465.547 32.5774C464.699 31.4681 463.851 30.8787 463.003 30.3241C463.003 29.7694 462.156 30.3241 461.308 30.3241C459.612 31.4334 460.46 32.5774 461.308 33.132C462.156 33.6867 463.003 33.6867 463.851 34.8306ZM465.547 53.3767C466.395 53.3767 466.395 53.9314 467.243 53.9314L479.857 49.4249C480.705 49.4249 481.553 47.7262 480.705 47.1716C480.705 46.6169 479.009 45.473 478.161 44.9183C477.313 44.9183 475.67 44.9183 474.822 45.473C473.974 48.2809 469.787 48.2809 468.091 50.5341L465.547 53.3767ZM476.412 26.9615C475.564 24.7083 474.716 24.1536 473.073 24.7083C473.073 24.1536 472.225 24.1537 472.225 23.599C471.377 23.599 471.377 24.1536 470.529 24.7083C471.377 24.7083 471.377 25.2629 472.225 25.2629V26.4069C473.073 26.4069 474.769 26.9615 476.412 26.9615ZM472.225 25.2629V24.7083H473.073L472.225 25.2629ZM482.295 38.1932C484.839 36.4946 483.991 35.3853 481.447 33.6867C478.956 35.3853 479.804 36.4946 482.295 38.1932ZM501.64 56.7393V51.6781C501.64 50.5688 499.944 49.4249 499.944 49.4249C498.248 49.4249 496.605 49.9795 495.757 51.0888C494.909 51.6434 494.909 52.7874 494.909 53.8967C494.909 54.4514 494.061 55.0407 494.061 56.15C489.026 56.15 483.991 57.2593 480.652 59.5126C481.5 62.3205 483.143 62.8751 485.687 61.7658L501.64 56.7393ZM492.365 52.8221C489.821 50.0142 489.026 47.2062 492.365 44.953C490.669 42.6997 488.178 42.6997 486.482 43.8437C484.786 44.3983 484.786 45.5423 483.991 46.6516C483.143 48.3502 483.991 50.0142 486.482 51.1581C488.178 52.2328 488.178 52.8221 492.365 52.8221ZM489.874 24.7083C489.874 24.1536 488.178 24.1536 488.178 24.1536C487.33 24.1536 487.33 24.7083 487.33 25.2629L488.178 25.8176C489.026 25.263 489.874 25.2629 489.874 24.7083ZM504.131 23.0096C500.792 23.0096 498.248 23.0097 495.757 23.5643C497.4 26.9615 497.4 26.9615 504.131 23.0096ZM504.979 27.5162L499.944 29.7695C502.488 32.5774 504.979 34.8307 507.523 37.0839C508.371 36.5293 509.219 36.5292 509.219 35.9746C509.219 33.7213 509.219 31.4681 508.371 29.2148C508.318 28.6602 505.827 27.5162 504.979 27.5162ZM514.201 51.6781C515.049 51.1235 515.897 50.5688 515.049 50.5688C515.049 50.0142 514.201 49.4595 513.353 49.4595C512.505 49.4595 512.505 50.0142 511.657 50.5688L514.201 51.6781ZM512.558 73.5868C513.406 73.5868 514.254 73.0321 514.254 72.4428L513.406 71.8882C513.406 71.8882 512.558 72.4428 511.71 72.4428C512.558 73.0321 512.558 73.5868 512.558 73.5868ZM521.78 43.809C520.084 41.5557 517.593 41.5558 514.201 42.6997C516.745 44.3637 518.388 44.953 521.78 43.809ZM527.663 21.9004C526.815 21.9004 525.967 22.455 525.967 23.0096C525.967 23.0096 525.967 23.5643 526.815 24.1536L529.359 22.455L527.663 21.9004ZM538.527 28.0708V29.1802C539.375 30.2895 541.018 31.4334 543.562 30.2894C543.562 30.2894 544.411 29.1801 544.411 28.5908C542.768 26.9615 540.223 27.5162 538.527 28.0708ZM546.955 41.5558C546.107 41.5558 545.259 41.5558 544.464 42.1104C544.464 42.6651 545.312 43.2544 545.312 43.2544C546.16 43.2544 547.008 43.2544 548.651 42.6997L546.955 41.5558ZM562.059 65.7177C562.059 65.163 562.059 64.6084 562.907 64.6084C562.059 64.6084 562.059 64.0537 561.211 64.0537C561.211 64.0537 561.212 64.6084 560.364 65.1977C561.212 65.1631 561.211 65.163 562.059 65.7177ZM572.977 42.6997C572.129 43.2544 570.433 44.3983 570.433 44.953C569.585 47.2062 570.433 49.4595 571.281 51.1234C573.772 51.6781 574.62 51.1235 575.468 49.4595C576.316 47.7609 576.316 45.5076 577.164 43.289C577.164 42.1451 574.673 41.5558 572.977 42.6997ZM600.643 44.953L598.947 46.0623C599.795 46.6169 600.643 47.1716 600.643 46.617C601.491 46.617 602.339 46.0623 602.339 45.473L600.643 44.953ZM607.374 56.1846L604.883 57.8833C606.579 58.4379 607.374 58.9925 608.222 58.9925C608.222 58.9925 609.918 58.4379 609.07 58.4379C609.07 57.2939 608.222 56.7393 607.374 56.1846ZM615.801 24.7083C615.801 25.2629 615.801 25.8176 614.953 25.8176C615.801 26.3723 616.649 26.3722 616.649 26.3722C616.649 25.8176 616.649 25.8176 617.497 25.2282C616.649 25.2629 616.649 25.2629 615.801 24.7083Z" fill="#FBDB65"/>
</svg>
